<svg width="800" height="600" viewBox="0 0 800 600" fill="none" xmlns="http://www.w3.org/2000/svg">
  <!-- Background -->
  <rect width="800" height="600" fill="#f1f5f9"/>
  
  <!-- Pattern -->
  <pattern id="grid" width="40" height="40" patternUnits="userSpaceOnUse">
    <path d="M 40 0 L 0 0 0 40" fill="none" stroke="#e2e8f0" stroke-width="1"/>
  </pattern>
  <rect width="800" height="600" fill="url(#grid)"/>
  
  <!-- Icon container -->
  <circle cx="400" cy="260" r="80" fill="#f97316" opacity="0.1"/>
  <circle cx="400" cy="260" r="60" fill="#f97316" opacity="0.2"/>
  
  <!-- Flame icon -->
  <path d="M400 200 C400 200 440 240 440 270 C440 295 425 310 400 310 C375 310 360 295 360 270 C360 240 400 200 400 200Z" fill="#f97316"/>
  <path d="M400 230 C400 230 420 250 420 265 C420 280 412 288 400 288 C388 288 380 280 380 265 C380 250 400 230 400 230Z" fill="#0f172a"/>
  
  <!-- Text -->
  <text x="400" y="380" font-family="Arial, sans-serif" font-size="24" fill="#64748b" text-anchor="middle">Image à venir</text>
  <text x="400" y="415" font-family="Arial, sans-serif" font-size="16" fill="#94a3b8" text-anchor="middle">DCS Ramonage</text>
</svg>
