<svg width="180" height="180" viewBox="0 0 180 180" fill="none" xmlns="http://www.w3.org/2000/svg">
  <!-- Background -->
  <rect width="180" height="180" rx="40" fill="#0f172a"/>
  
  <!-- Flame icon -->
  <g transform="translate(40, 30)">
    <!-- Outer flame -->
    <path d="M50 0 C50 0 95 50 95 85 C95 115 75 130 50 130 C25 130 5 115 5 85 C5 50 50 0 50 0Z" fill="#f97316"/>
    <!-- Inner flame -->
    <path d="M50 40 C50 40 75 65 75 85 C75 100 65 110 50 110 C35 110 25 100 25 85 C25 65 50 40 50 40Z" fill="#0f172a"/>
    <!-- Core flame -->
    <path d="M50 60 C50 60 62 72 62 82 C62 92 57 97 50 97 C43 97 38 92 38 82 C38 72 50 60 50 60Z" fill="#f97316"/>
  </g>
  
  <!-- Text DCS -->
  <text x="90" y="160" font-family="Arial, sans-serif" font-size="24" font-weight="bold" fill="white" text-anchor="middle">DCS</text>
</svg>
