<svg xmlns="http://www.w3.org/2000/svg" xmlns:xlink="http://www.w3.org/1999/xlink" width="500" zoomAndPan="magnify" viewBox="0 0 375 374.999991" height="500" preserveAspectRatio="xMidYMid meet" version="1.0"><defs><g/><clipPath id="dd4691331b"><path d="M 112.5 139.464844 L 240 139.464844 L 240 182.214844 L 112.5 182.214844 Z M 112.5 139.464844 " clip-rule="nonzero"/></clipPath><clipPath id="b65b0312f2"><path d="M 188 140 L 262.5 140 L 262.5 182 L 188 182 Z M 188 140 " clip-rule="nonzero"/></clipPath></defs><g fill="#545454" fill-opacity="1"><g transform="translate(11.293192, 215.33496)"><g><path d="M 9.6875 0 L 2.734375 0 L 2.734375 -22.546875 L 10 -22.546875 C 12.1875 -22.546875 14.054688 -22.09375 15.609375 -21.1875 C 17.160156 -20.289062 18.351562 -19.003906 19.1875 -17.328125 C 20.019531 -15.648438 20.4375 -13.644531 20.4375 -11.3125 C 20.4375 -8.96875 20.015625 -6.945312 19.171875 -5.25 C 18.335938 -3.5625 17.117188 -2.265625 15.515625 -1.359375 C 13.921875 -0.453125 11.976562 0 9.6875 0 Z M 5.453125 -2.421875 L 9.515625 -2.421875 C 12.304688 -2.421875 14.382812 -3.210938 15.75 -4.796875 C 17.113281 -6.390625 17.796875 -8.5625 17.796875 -11.3125 C 17.796875 -14.039062 17.125 -16.191406 15.78125 -17.765625 C 14.445312 -19.335938 12.457031 -20.125 9.8125 -20.125 L 5.453125 -20.125 Z M 5.453125 -2.421875 "/></g></g></g><g fill="#545454" fill-opacity="1"><g transform="translate(42.716478, 215.33496)"><g><path d="M 20.875 -15.5 L 18.140625 -15.5 C 17.921875 -16.539062 17.5 -17.414062 16.875 -18.125 C 16.25 -18.84375 15.492188 -19.382812 14.609375 -19.75 C 13.734375 -20.113281 12.796875 -20.296875 11.796875 -20.296875 C 10.429688 -20.296875 9.195312 -19.953125 8.09375 -19.265625 C 6.988281 -18.578125 6.109375 -17.5625 5.453125 -16.21875 C 4.804688 -14.875 4.484375 -13.222656 4.484375 -11.265625 C 4.484375 -9.316406 4.804688 -7.671875 5.453125 -6.328125 C 6.109375 -4.984375 6.988281 -3.96875 8.09375 -3.28125 C 9.195312 -2.59375 10.429688 -2.25 11.796875 -2.25 C 12.796875 -2.25 13.734375 -2.429688 14.609375 -2.796875 C 15.492188 -3.160156 16.25 -3.695312 16.875 -4.40625 C 17.5 -5.125 17.921875 -6.003906 18.140625 -7.046875 L 20.875 -7.046875 C 20.59375 -5.503906 20.019531 -4.179688 19.15625 -3.078125 C 18.300781 -1.984375 17.238281 -1.144531 15.96875 -0.5625 C 14.695312 0.0195312 13.304688 0.3125 11.796875 0.3125 C 9.878906 0.3125 8.171875 -0.15625 6.671875 -1.09375 C 5.171875 -2.039062 3.988281 -3.378906 3.125 -5.109375 C 2.269531 -6.835938 1.84375 -8.890625 1.84375 -11.265625 C 1.84375 -13.648438 2.269531 -15.707031 3.125 -17.4375 C 3.988281 -19.164062 5.171875 -20.5 6.671875 -21.4375 C 8.171875 -22.382812 9.878906 -22.859375 11.796875 -22.859375 C 13.304688 -22.859375 14.695312 -22.566406 15.96875 -21.984375 C 17.238281 -21.398438 18.300781 -20.554688 19.15625 -19.453125 C 20.019531 -18.359375 20.59375 -17.039062 20.875 -15.5 Z M 20.875 -15.5 "/></g></g></g><g fill="#545454" fill-opacity="1"><g transform="translate(74.403927, 215.33496)"><g><path d="M 15.0625 -16.90625 C 14.925781 -18.019531 14.390625 -18.882812 13.453125 -19.5 C 12.515625 -20.125 11.363281 -20.4375 10 -20.4375 C 8.5 -20.4375 7.289062 -20.082031 6.375 -19.375 C 5.46875 -18.664062 5.015625 -17.769531 5.015625 -16.6875 C 5.015625 -15.882812 5.257812 -15.234375 5.75 -14.734375 C 6.25 -14.234375 6.835938 -13.847656 7.515625 -13.578125 C 8.203125 -13.304688 8.820312 -13.097656 9.375 -12.953125 L 11.671875 -12.328125 C 12.253906 -12.171875 12.90625 -11.957031 13.625 -11.6875 C 14.351562 -11.414062 15.046875 -11.046875 15.703125 -10.578125 C 16.367188 -10.117188 16.921875 -9.523438 17.359375 -8.796875 C 17.796875 -8.066406 18.015625 -7.175781 18.015625 -6.125 C 18.015625 -4.90625 17.695312 -3.800781 17.0625 -2.8125 C 16.425781 -1.832031 15.5 -1.050781 14.28125 -0.46875 C 13.070312 0.101562 11.597656 0.390625 9.859375 0.390625 C 7.441406 0.390625 5.519531 -0.175781 4.09375 -1.3125 C 2.664062 -2.457031 1.890625 -3.957031 1.765625 -5.8125 L 4.578125 -5.8125 C 4.648438 -4.957031 4.9375 -4.253906 5.4375 -3.703125 C 5.945312 -3.148438 6.585938 -2.738281 7.359375 -2.46875 C 8.128906 -2.195312 8.960938 -2.0625 9.859375 -2.0625 C 10.898438 -2.0625 11.835938 -2.234375 12.671875 -2.578125 C 13.503906 -2.921875 14.160156 -3.398438 14.640625 -4.015625 C 15.128906 -4.628906 15.375 -5.347656 15.375 -6.171875 C 15.375 -6.910156 15.160156 -7.515625 14.734375 -7.984375 C 14.316406 -8.460938 13.765625 -8.847656 13.078125 -9.140625 C 12.398438 -9.429688 11.664062 -9.6875 10.875 -9.90625 L 8.109375 -10.703125 C 6.335938 -11.203125 4.9375 -11.921875 3.90625 -12.859375 C 2.882812 -13.804688 2.375 -15.039062 2.375 -16.5625 C 2.375 -17.820312 2.71875 -18.921875 3.40625 -19.859375 C 4.09375 -20.804688 5.015625 -21.539062 6.171875 -22.0625 C 7.335938 -22.59375 8.640625 -22.859375 10.078125 -22.859375 C 11.535156 -22.859375 12.828125 -22.597656 13.953125 -22.078125 C 15.085938 -21.554688 15.984375 -20.847656 16.640625 -19.953125 C 17.304688 -19.054688 17.660156 -18.039062 17.703125 -16.90625 Z M 15.0625 -16.90625 "/></g></g></g><g fill="#545454" fill-opacity="1"><g transform="translate(103.317589, 215.33496)"><g/></g></g><g fill="#545454" fill-opacity="1"><g transform="translate(121.180167, 215.33496)"><g><path d="M 2.734375 0 L 2.734375 -22.546875 L 10.34375 -22.546875 C 12.101562 -22.546875 13.546875 -22.242188 14.671875 -21.640625 C 15.804688 -21.046875 16.644531 -20.226562 17.1875 -19.1875 C 17.738281 -18.144531 18.015625 -16.957031 18.015625 -15.625 C 18.015625 -14.132812 17.671875 -12.832031 16.984375 -11.71875 C 16.296875 -10.601562 15.234375 -9.800781 13.796875 -9.3125 L 18.890625 0 L 15.71875 0 L 10.96875 -8.8125 C 10.78125 -8.8125 10.585938 -8.8125 10.390625 -8.8125 L 5.453125 -8.8125 L 5.453125 0 Z M 5.453125 -11.265625 L 10.296875 -11.265625 C 12.109375 -11.265625 13.398438 -11.65625 14.171875 -12.4375 C 14.941406 -13.21875 15.328125 -14.28125 15.328125 -15.625 C 15.328125 -16.988281 14.9375 -18.078125 14.15625 -18.890625 C 13.382812 -19.710938 12.085938 -20.125 10.265625 -20.125 L 5.453125 -20.125 Z M 5.453125 -11.265625 "/></g></g></g><g fill="#545454" fill-opacity="1"><g transform="translate(150.137871, 215.33496)"><g><path d="M 3.65625 0 L 0.796875 0 L 9.078125 -22.546875 L 11.890625 -22.546875 L 20.171875 0 L 17.3125 0 L 15.03125 -6.390625 L 5.921875 -6.390625 Z M 6.78125 -8.8125 L 14.171875 -8.8125 L 10.5625 -18.984375 L 10.390625 -18.984375 Z M 6.78125 -8.8125 "/></g></g></g><g fill="#545454" fill-opacity="1"><g transform="translate(180.240305, 215.33496)"><g><path d="M 2.734375 -22.546875 L 5.984375 -22.546875 L 13.65625 -3.828125 L 13.921875 -3.828125 L 21.578125 -22.546875 L 24.828125 -22.546875 L 24.828125 0 L 22.28125 0 L 22.28125 -17.125 L 22.0625 -17.125 L 15.015625 0 L 12.546875 0 L 5.5 -17.125 L 5.28125 -17.125 L 5.28125 0 L 2.734375 0 Z M 2.734375 -22.546875 "/></g></g></g><g fill="#545454" fill-opacity="1"><g transform="translate(217.651439, 215.33496)"><g><path d="M 21.75 -11.265625 C 21.75 -8.890625 21.316406 -6.835938 20.453125 -5.109375 C 19.597656 -3.378906 18.421875 -2.039062 16.921875 -1.09375 C 15.429688 -0.15625 13.722656 0.3125 11.796875 0.3125 C 9.878906 0.3125 8.171875 -0.15625 6.671875 -1.09375 C 5.171875 -2.039062 3.988281 -3.378906 3.125 -5.109375 C 2.269531 -6.835938 1.84375 -8.890625 1.84375 -11.265625 C 1.84375 -13.648438 2.269531 -15.707031 3.125 -17.4375 C 3.988281 -19.164062 5.171875 -20.5 6.671875 -21.4375 C 8.171875 -22.382812 9.878906 -22.859375 11.796875 -22.859375 C 13.722656 -22.859375 15.429688 -22.382812 16.921875 -21.4375 C 18.421875 -20.5 19.597656 -19.164062 20.453125 -17.4375 C 21.316406 -15.707031 21.75 -13.648438 21.75 -11.265625 Z M 19.109375 -11.265625 C 19.109375 -13.222656 18.78125 -14.875 18.125 -16.21875 C 17.476562 -17.5625 16.601562 -18.578125 15.5 -19.265625 C 14.394531 -19.953125 13.160156 -20.296875 11.796875 -20.296875 C 10.429688 -20.296875 9.195312 -19.953125 8.09375 -19.265625 C 6.988281 -18.578125 6.109375 -17.5625 5.453125 -16.21875 C 4.804688 -14.875 4.484375 -13.222656 4.484375 -11.265625 C 4.484375 -9.316406 4.804688 -7.671875 5.453125 -6.328125 C 6.109375 -4.984375 6.988281 -3.96875 8.09375 -3.28125 C 9.195312 -2.59375 10.429688 -2.25 11.796875 -2.25 C 13.160156 -2.25 14.394531 -2.59375 15.5 -3.28125 C 16.601562 -3.96875 17.476562 -4.984375 18.125 -6.328125 C 18.78125 -7.671875 19.109375 -9.316406 19.109375 -11.265625 Z M 19.109375 -11.265625 "/></g></g></g><g fill="#545454" fill-opacity="1"><g transform="translate(250.39557, 215.33496)"><g><path d="M 20.609375 -22.546875 L 20.609375 0 L 17.96875 0 L 5.6875 -17.703125 L 5.453125 -17.703125 L 5.453125 0 L 2.734375 0 L 2.734375 -22.546875 L 5.375 -22.546875 L 17.703125 -4.796875 L 17.921875 -4.796875 L 17.921875 -22.546875 Z M 20.609375 -22.546875 "/></g></g></g><g fill="#545454" fill-opacity="1"><g transform="translate(282.875526, 215.33496)"><g><path d="M 3.65625 0 L 0.796875 0 L 9.078125 -22.546875 L 11.890625 -22.546875 L 20.171875 0 L 17.3125 0 L 15.03125 -6.390625 L 5.921875 -6.390625 Z M 6.78125 -8.8125 L 14.171875 -8.8125 L 10.5625 -18.984375 L 10.390625 -18.984375 Z M 6.78125 -8.8125 "/></g></g></g><g fill="#545454" fill-opacity="1"><g transform="translate(312.977948, 215.33496)"><g><path d="M 18.140625 -15.5 C 17.660156 -16.976562 16.875 -18.144531 15.78125 -19 C 14.695312 -19.863281 13.34375 -20.296875 11.71875 -20.296875 C 10.375 -20.296875 9.15625 -19.953125 8.0625 -19.265625 C 6.96875 -18.578125 6.097656 -17.5625 5.453125 -16.21875 C 4.804688 -14.875 4.484375 -13.222656 4.484375 -11.265625 C 4.484375 -9.316406 4.8125 -7.671875 5.46875 -6.328125 C 6.125 -4.984375 7.007812 -3.96875 8.125 -3.28125 C 9.238281 -2.59375 10.492188 -2.25 11.890625 -2.25 C 13.160156 -2.25 14.285156 -2.515625 15.265625 -3.046875 C 16.242188 -3.585938 17.007812 -4.351562 17.5625 -5.34375 C 18.125 -6.332031 18.421875 -7.5 18.453125 -8.84375 L 12.5 -8.84375 L 12.5 -11.265625 L 21.09375 -11.265625 L 21.09375 -8.84375 C 21.09375 -6.988281 20.695312 -5.375 19.90625 -4 C 19.113281 -2.632812 18.023438 -1.570312 16.640625 -0.8125 C 15.265625 -0.0625 13.679688 0.3125 11.890625 0.3125 C 9.890625 0.3125 8.132812 -0.15625 6.625 -1.09375 C 5.125 -2.039062 3.953125 -3.378906 3.109375 -5.109375 C 2.265625 -6.835938 1.84375 -8.890625 1.84375 -11.265625 C 1.84375 -13.648438 2.265625 -15.707031 3.109375 -17.4375 C 3.953125 -19.164062 5.113281 -20.5 6.59375 -21.4375 C 8.082031 -22.382812 9.789062 -22.859375 11.71875 -22.859375 C 13.300781 -22.859375 14.738281 -22.546875 16.03125 -21.921875 C 17.320312 -21.304688 18.394531 -20.441406 19.25 -19.328125 C 20.113281 -18.222656 20.679688 -16.945312 20.953125 -15.5 Z M 18.140625 -15.5 "/></g></g></g><g fill="#545454" fill-opacity="1"><g transform="translate(345.149714, 215.33496)"><g><path d="M 2.734375 0 L 2.734375 -22.546875 L 16.34375 -22.546875 L 16.34375 -20.125 L 5.453125 -20.125 L 5.453125 -12.5 L 15.625 -12.5 L 15.625 -10.078125 L 5.453125 -10.078125 L 5.453125 -2.421875 L 16.515625 -2.421875 L 16.515625 0 Z M 2.734375 0 "/></g></g></g><g clip-path="url(#dd4691331b)"><path fill="#545454" d="M 114.78125 182.136719 L 175.964844 142.558594 C 175.964844 142.558594 237.144531 182.136719 237.144531 182.136719 C 237.777344 182.546875 238.625 182.367188 239.035156 181.734375 C 239.445312 181.101562 239.265625 180.253906 238.628906 179.84375 C 238.628906 179.84375 176.707031 139.78125 176.707031 139.78125 C 176.253906 139.492188 175.671875 139.492188 175.222656 139.78125 C 175.222656 139.78125 113.296875 179.84375 113.296875 179.84375 C 112.664062 180.253906 112.484375 181.101562 112.894531 181.734375 C 113.304688 182.367188 114.148438 182.546875 114.78125 182.136719 Z M 114.78125 182.136719 " fill-opacity="1" fill-rule="evenodd"/></g><g clip-path="url(#b65b0312f2)"><path fill="#545454" d="M 191.089844 150.652344 L 202.34375 143.371094 C 202.34375 143.371094 260.1875 181.316406 260.1875 181.316406 C 260.816406 181.730469 261.664062 181.554688 262.078125 180.921875 C 262.492188 180.292969 262.316406 179.445312 261.6875 179.03125 C 261.6875 179.03125 203.097656 140.597656 203.097656 140.597656 C 202.644531 140.300781 202.0625 140.296875 201.605469 140.589844 C 201.605469 140.589844 196.625 143.8125 189.605469 148.355469 C 188.972656 148.765625 188.789062 149.613281 189.199219 150.246094 C 189.609375 150.878906 190.457031 151.058594 191.089844 150.652344 Z M 191.089844 150.652344 " fill-opacity="1" fill-rule="evenodd"/></g><path fill="#545454" d="M 148.015625 159.410156 L 148.015625 149.089844 C 148.015625 148.339844 147.402344 147.730469 146.652344 147.730469 L 135.269531 147.730469 C 134.511719 147.730469 133.90625 148.339844 133.90625 149.089844 L 133.90625 167.257812 C 133.90625 168.007812 134.511719 168.617188 135.269531 168.617188 C 136.019531 168.617188 136.628906 168.007812 136.628906 167.257812 L 136.628906 150.449219 C 136.628906 150.449219 145.289062 150.449219 145.289062 150.449219 L 145.289062 159.410156 C 145.289062 160.160156 145.902344 160.773438 146.652344 160.773438 C 147.402344 160.773438 148.015625 160.160156 148.015625 159.410156 Z M 148.015625 159.410156 " fill-opacity="1" fill-rule="evenodd"/><g fill="#545454" fill-opacity="1"><g transform="translate(103.43501, 232.134959)"><g><path d="M 1.296875 0 L 0.28125 0 L 3.21875 -8 L 4.21875 -8 L 7.15625 0 L 6.140625 0 L 5.34375 -2.265625 L 2.109375 -2.265625 Z M 2.40625 -3.125 L 5.03125 -3.125 L 3.75 -6.734375 L 3.6875 -6.734375 Z M 2.40625 -3.125 "/></g></g></g><g fill="#545454" fill-opacity="1"><g transform="translate(114.112302, 232.134959)"><g><path d="M 0.96875 0 L 0.96875 -8 L 3.671875 -8 C 4.296875 -8 4.804688 -7.890625 5.203125 -7.671875 C 5.609375 -7.460938 5.90625 -7.171875 6.09375 -6.796875 C 6.289062 -6.429688 6.390625 -6.015625 6.390625 -5.546875 C 6.390625 -5.015625 6.265625 -4.550781 6.015625 -4.15625 C 5.773438 -3.757812 5.398438 -3.476562 4.890625 -3.3125 L 6.703125 0 L 5.578125 0 L 3.890625 -3.125 C 3.828125 -3.125 3.757812 -3.125 3.6875 -3.125 L 1.9375 -3.125 L 1.9375 0 Z M 1.9375 -4 L 3.65625 -4 C 4.300781 -4 4.757812 -4.132812 5.03125 -4.40625 C 5.300781 -4.6875 5.4375 -5.066406 5.4375 -5.546875 C 5.4375 -6.023438 5.296875 -6.410156 5.015625 -6.703125 C 4.742188 -6.992188 4.285156 -7.140625 3.640625 -7.140625 L 1.9375 -7.140625 Z M 1.9375 -4 "/></g></g></g><g fill="#545454" fill-opacity="1"><g transform="translate(124.383626, 232.134959)"><g><path d="M 0.53125 -7.140625 L 0.53125 -8 L 6.53125 -8 L 6.53125 -7.140625 L 4.015625 -7.140625 L 4.015625 0 L 3.046875 0 L 3.046875 -7.140625 Z M 0.53125 -7.140625 "/></g></g></g><g fill="#545454" fill-opacity="1"><g transform="translate(134.686182, 232.134959)"><g><path d="M 1.9375 -8 L 1.9375 0 L 0.96875 0 L 0.96875 -8 Z M 1.9375 -8 "/></g></g></g><g fill="#545454" fill-opacity="1"><g transform="translate(140.835401, 232.134959)"><g><path d="M 5.34375 -6 C 5.300781 -6.394531 5.113281 -6.703125 4.78125 -6.921875 C 4.445312 -7.140625 4.035156 -7.25 3.546875 -7.25 C 3.015625 -7.25 2.585938 -7.125 2.265625 -6.875 C 1.941406 -6.625 1.78125 -6.304688 1.78125 -5.921875 C 1.78125 -5.640625 1.867188 -5.410156 2.046875 -5.234375 C 2.222656 -5.054688 2.429688 -4.914062 2.671875 -4.8125 C 2.910156 -4.71875 3.128906 -4.644531 3.328125 -4.59375 L 4.140625 -4.375 C 4.347656 -4.320312 4.578125 -4.242188 4.828125 -4.140625 C 5.085938 -4.046875 5.335938 -3.914062 5.578125 -3.75 C 5.816406 -3.59375 6.007812 -3.382812 6.15625 -3.125 C 6.3125 -2.863281 6.390625 -2.546875 6.390625 -2.171875 C 6.390625 -1.742188 6.273438 -1.351562 6.046875 -1 C 5.828125 -0.65625 5.5 -0.378906 5.0625 -0.171875 C 4.632812 0.0351562 4.113281 0.140625 3.5 0.140625 C 2.644531 0.140625 1.960938 -0.0625 1.453125 -0.46875 C 0.953125 -0.875 0.675781 -1.40625 0.625 -2.0625 L 1.625 -2.0625 C 1.65625 -1.757812 1.757812 -1.507812 1.9375 -1.3125 C 2.113281 -1.113281 2.335938 -0.96875 2.609375 -0.875 C 2.890625 -0.78125 3.1875 -0.734375 3.5 -0.734375 C 3.875 -0.734375 4.207031 -0.789062 4.5 -0.90625 C 4.789062 -1.03125 5.019531 -1.203125 5.1875 -1.421875 C 5.363281 -1.640625 5.453125 -1.894531 5.453125 -2.1875 C 5.453125 -2.457031 5.378906 -2.675781 5.234375 -2.84375 C 5.085938 -3.007812 4.890625 -3.144531 4.640625 -3.25 C 4.398438 -3.351562 4.140625 -3.441406 3.859375 -3.515625 L 2.875 -3.796875 C 2.25 -3.972656 1.753906 -4.226562 1.390625 -4.5625 C 1.023438 -4.894531 0.84375 -5.332031 0.84375 -5.875 C 0.84375 -6.320312 0.960938 -6.710938 1.203125 -7.046875 C 1.453125 -7.378906 1.78125 -7.640625 2.1875 -7.828125 C 2.601562 -8.015625 3.066406 -8.109375 3.578125 -8.109375 C 4.097656 -8.109375 4.554688 -8.015625 4.953125 -7.828125 C 5.359375 -7.648438 5.675781 -7.398438 5.90625 -7.078125 C 6.144531 -6.765625 6.269531 -6.40625 6.28125 -6 Z M 5.34375 -6 "/></g></g></g><g fill="#545454" fill-opacity="1"><g transform="translate(151.091103, 232.134959)"><g><path d="M 1.296875 0 L 0.28125 0 L 3.21875 -8 L 4.21875 -8 L 7.15625 0 L 6.140625 0 L 5.34375 -2.265625 L 2.109375 -2.265625 Z M 2.40625 -3.125 L 5.03125 -3.125 L 3.75 -6.734375 L 3.6875 -6.734375 Z M 2.40625 -3.125 "/></g></g></g><g fill="#545454" fill-opacity="1"><g transform="translate(161.768397, 232.134959)"><g><path d="M 7.3125 -8 L 7.3125 0 L 6.375 0 L 2.015625 -6.28125 L 1.9375 -6.28125 L 1.9375 0 L 0.96875 0 L 0.96875 -8 L 1.90625 -8 L 6.28125 -1.703125 L 6.359375 -1.703125 L 6.359375 -8 Z M 7.3125 -8 "/></g></g></g><g fill="#545454" fill-opacity="1"><g transform="translate(173.288843, 232.134959)"><g/></g></g><g fill="#545454" fill-opacity="1"><g transform="translate(179.625425, 232.134959)"><g><path d="M 0.96875 0 L 0.96875 -8 L 3.671875 -8 C 4.296875 -8 4.804688 -7.890625 5.203125 -7.671875 C 5.609375 -7.460938 5.90625 -7.171875 6.09375 -6.796875 C 6.289062 -6.429688 6.390625 -6.015625 6.390625 -5.546875 C 6.390625 -5.015625 6.265625 -4.550781 6.015625 -4.15625 C 5.773438 -3.757812 5.398438 -3.476562 4.890625 -3.3125 L 6.703125 0 L 5.578125 0 L 3.890625 -3.125 C 3.828125 -3.125 3.757812 -3.125 3.6875 -3.125 L 1.9375 -3.125 L 1.9375 0 Z M 1.9375 -4 L 3.65625 -4 C 4.300781 -4 4.757812 -4.132812 5.03125 -4.40625 C 5.300781 -4.6875 5.4375 -5.066406 5.4375 -5.546875 C 5.4375 -6.023438 5.296875 -6.410156 5.015625 -6.703125 C 4.742188 -6.992188 4.285156 -7.140625 3.640625 -7.140625 L 1.9375 -7.140625 Z M 1.9375 -4 "/></g></g></g><g fill="#545454" fill-opacity="1"><g transform="translate(189.896749, 232.134959)"><g><path d="M 1.296875 0 L 0.28125 0 L 3.21875 -8 L 4.21875 -8 L 7.15625 0 L 6.140625 0 L 5.34375 -2.265625 L 2.109375 -2.265625 Z M 2.40625 -3.125 L 5.03125 -3.125 L 3.75 -6.734375 L 3.6875 -6.734375 Z M 2.40625 -3.125 "/></g></g></g><g fill="#545454" fill-opacity="1"><g transform="translate(200.574046, 232.134959)"><g><path d="M 0.96875 -8 L 2.125 -8 L 4.84375 -1.359375 L 4.9375 -1.359375 L 7.65625 -8 L 8.8125 -8 L 8.8125 0 L 7.90625 0 L 7.90625 -6.078125 L 7.828125 -6.078125 L 5.328125 0 L 4.453125 0 L 1.953125 -6.078125 L 1.875 -6.078125 L 1.875 0 L 0.96875 0 Z M 0.96875 -8 "/></g></g></g><g fill="#545454" fill-opacity="1"><g transform="translate(213.843263, 232.134959)"><g><path d="M 7.71875 -4 C 7.71875 -3.15625 7.566406 -2.425781 7.265625 -1.8125 C 6.960938 -1.195312 6.546875 -0.722656 6.015625 -0.390625 C 5.484375 -0.0546875 4.875 0.109375 4.1875 0.109375 C 3.507812 0.109375 2.90625 -0.0546875 2.375 -0.390625 C 1.84375 -0.722656 1.421875 -1.195312 1.109375 -1.8125 C 0.804688 -2.425781 0.65625 -3.15625 0.65625 -4 C 0.65625 -4.84375 0.804688 -5.570312 1.109375 -6.1875 C 1.421875 -6.800781 1.84375 -7.273438 2.375 -7.609375 C 2.90625 -7.941406 3.507812 -8.109375 4.1875 -8.109375 C 4.875 -8.109375 5.484375 -7.941406 6.015625 -7.609375 C 6.546875 -7.273438 6.960938 -6.800781 7.265625 -6.1875 C 7.566406 -5.570312 7.71875 -4.84375 7.71875 -4 Z M 6.78125 -4 C 6.78125 -4.695312 6.664062 -5.28125 6.4375 -5.75 C 6.207031 -6.226562 5.894531 -6.585938 5.5 -6.828125 C 5.113281 -7.078125 4.675781 -7.203125 4.1875 -7.203125 C 3.707031 -7.203125 3.269531 -7.078125 2.875 -6.828125 C 2.476562 -6.585938 2.164062 -6.226562 1.9375 -5.75 C 1.707031 -5.28125 1.59375 -4.695312 1.59375 -4 C 1.59375 -3.3125 1.707031 -2.726562 1.9375 -2.25 C 2.164062 -1.769531 2.476562 -1.40625 2.875 -1.15625 C 3.269531 -0.914062 3.707031 -0.796875 4.1875 -0.796875 C 4.675781 -0.796875 5.113281 -0.914062 5.5 -1.15625 C 5.894531 -1.40625 6.207031 -1.769531 6.4375 -2.25 C 6.664062 -2.726562 6.78125 -3.3125 6.78125 -4 Z M 6.78125 -4 "/></g></g></g><g fill="#545454" fill-opacity="1"><g transform="translate(225.45739, 232.134959)"><g><path d="M 7.3125 -8 L 7.3125 0 L 6.375 0 L 2.015625 -6.28125 L 1.9375 -6.28125 L 1.9375 0 L 0.96875 0 L 0.96875 -8 L 1.90625 -8 L 6.28125 -1.703125 L 6.359375 -1.703125 L 6.359375 -8 Z M 7.3125 -8 "/></g></g></g><g fill="#545454" fill-opacity="1"><g transform="translate(236.977836, 232.134959)"><g><path d="M 0.96875 0 L 0.96875 -8 L 5.796875 -8 L 5.796875 -7.140625 L 1.9375 -7.140625 L 1.9375 -4.4375 L 5.546875 -4.4375 L 5.546875 -3.578125 L 1.9375 -3.578125 L 1.9375 -0.859375 L 5.859375 -0.859375 L 5.859375 0 Z M 0.96875 0 "/></g></g></g><g fill="#545454" fill-opacity="1"><g transform="translate(246.796351, 232.134959)"><g><path d="M 6.21875 -8 L 7.1875 -8 L 7.1875 -2.703125 C 7.1875 -2.109375 7.046875 -1.597656 6.765625 -1.171875 C 6.484375 -0.742188 6.101562 -0.414062 5.625 -0.1875 C 5.15625 0.03125 4.640625 0.140625 4.078125 0.140625 C 3.515625 0.140625 3 0.03125 2.53125 -0.1875 C 2.0625 -0.414062 1.679688 -0.742188 1.390625 -1.171875 C 1.109375 -1.597656 0.96875 -2.109375 0.96875 -2.703125 L 0.96875 -8 L 1.9375 -8 L 1.9375 -2.703125 C 1.9375 -2.285156 2.035156 -1.929688 2.234375 -1.640625 C 2.429688 -1.359375 2.691406 -1.140625 3.015625 -0.984375 C 3.347656 -0.835938 3.703125 -0.765625 4.078125 -0.765625 C 4.460938 -0.765625 4.816406 -0.835938 5.140625 -0.984375 C 5.460938 -1.140625 5.722656 -1.359375 5.921875 -1.640625 C 6.117188 -1.929688 6.21875 -2.285156 6.21875 -2.703125 Z M 6.21875 -8 "/></g></g></g><g fill="#545454" fill-opacity="1"><g transform="translate(258.191885, 232.134959)"><g><path d="M 0.96875 0 L 0.96875 -8 L 3.671875 -8 C 4.296875 -8 4.804688 -7.890625 5.203125 -7.671875 C 5.609375 -7.460938 5.90625 -7.171875 6.09375 -6.796875 C 6.289062 -6.429688 6.390625 -6.015625 6.390625 -5.546875 C 6.390625 -5.015625 6.265625 -4.550781 6.015625 -4.15625 C 5.773438 -3.757812 5.398438 -3.476562 4.890625 -3.3125 L 6.703125 0 L 5.578125 0 L 3.890625 -3.125 C 3.828125 -3.125 3.757812 -3.125 3.6875 -3.125 L 1.9375 -3.125 L 1.9375 0 Z M 1.9375 -4 L 3.65625 -4 C 4.300781 -4 4.757812 -4.132812 5.03125 -4.40625 C 5.300781 -4.6875 5.4375 -5.066406 5.4375 -5.546875 C 5.4375 -6.023438 5.296875 -6.410156 5.015625 -6.703125 C 4.742188 -6.992188 4.285156 -7.140625 3.640625 -7.140625 L 1.9375 -7.140625 Z M 1.9375 -4 "/></g></g></g><g fill="#545454" fill-opacity="1"><g transform="translate(268.470155, 232.134959)"><g/></g></g></svg>